<svg width="25" height="25" viewBox="0 0 25 25" fill="none" xmlns="http://www.w3.org/2000/svg">
<rect x="0.5" y="0.193604" width="24" height="24" rx="12" fill="#876BFA"/>
<path fill-rule="evenodd" clip-rule="evenodd" d="M15.681 6.1936H9.31903H9.31902C8.71529 6.19359 8.21703 6.19359 7.81113 6.22675C7.38956 6.26119 7.00203 6.33512 6.63803 6.52058C6.07354 6.80821 5.6146 7.26715 5.32698 7.83163C5.14151 8.19563 5.06759 8.58316 5.03315 9.00474C5.01104 9.27534 5.00367 9.58701 5.00122 9.9436H5V10.4606C5 10.4779 5 10.4952 5 10.5126V10.5126V11.4436V13.8746V13.8746C4.99999 14.4783 4.99998 14.9766 5.03315 15.3825C5.06759 15.804 5.14151 16.1916 5.32698 16.5556C5.6146 17.1201 6.07354 17.579 6.63803 17.8666C7.00203 18.0521 7.38956 18.126 7.81113 18.1605C8.21703 18.1936 8.7153 18.1936 9.31903 18.1936H9.31904H15.681H15.681C16.2847 18.1936 16.783 18.1936 17.1889 18.1605C17.6104 18.126 17.998 18.0521 18.362 17.8666C18.9265 17.579 19.3854 17.1201 19.673 16.5556C19.8585 16.1916 19.9324 15.804 19.9669 15.3825C20 14.9766 20 14.4783 20 13.8746V11.4436V10.5126C20 10.4945 20 10.4765 20 10.4586V9.9436H19.9988C19.9963 9.58701 19.989 9.27534 19.9669 9.00473C19.9324 8.58316 19.8585 8.19563 19.673 7.83163C19.3854 7.26715 18.9265 6.80821 18.362 6.52058C17.998 6.33512 17.6104 6.26119 17.1889 6.22675C16.783 6.19359 16.2847 6.19359 15.681 6.1936H15.681ZM18.4987 9.9436C18.4963 9.60946 18.4898 9.34708 18.4718 9.12688C18.445 8.79807 18.3963 8.62992 18.3365 8.51262C18.1927 8.23038 17.9632 8.0009 17.681 7.85709C17.5637 7.79733 17.3955 7.74863 17.0667 7.72177C16.7292 7.69419 16.2924 7.6936 15.65 7.6936H9.35C8.70757 7.6936 8.27085 7.69419 7.93328 7.72177C7.60447 7.74863 7.43632 7.79733 7.31902 7.85709C7.03677 8.0009 6.8073 8.23038 6.66349 8.51262C6.60372 8.62992 6.55503 8.79807 6.52816 9.12688C6.51017 9.34708 6.50367 9.60946 6.50132 9.9436H18.4987ZM6.5 11.4436V13.8436C6.5 14.486 6.50058 14.9228 6.52816 15.2603C6.55503 15.5891 6.60372 15.7573 6.66349 15.8746C6.8073 16.1568 7.03677 16.3863 7.31902 16.5301C7.43632 16.5899 7.60447 16.6386 7.93328 16.6654C8.27085 16.693 8.70757 16.6936 9.35 16.6936H15.65C16.2924 16.6936 16.7292 16.693 17.0667 16.6654C17.3955 16.6386 17.5637 16.5899 17.681 16.5301C17.9632 16.3863 18.1927 16.1568 18.3365 15.8746C18.3963 15.7573 18.445 15.5891 18.4718 15.2603C18.4994 14.9228 18.5 14.486 18.5 13.8436V11.4436H6.5ZM8 14.4436C8 14.0294 8.33579 13.6936 8.75 13.6936H11.75C12.1642 13.6936 12.5 14.0294 12.5 14.4436C12.5 14.8578 12.1642 15.1936 11.75 15.1936H8.75C8.33579 15.1936 8 14.8578 8 14.4436Z" fill="#2C2640"/>
</svg>
