<svg width="21" height="22" viewBox="0 0 21 22" fill="none" xmlns="http://www.w3.org/2000/svg">
<g clip-path="url(#clip0_3160_5576)">
<rect width="20.7761" height="20.7761" transform="translate(0.0895996 0.719604)" fill="url(#paint0_linear_3160_5576)"/>
<path fill-rule="evenodd" clip-rule="evenodd" d="M14.1061 9.35513C14.4829 9.35513 14.7883 9.04986 14.7883 8.67343C14.7883 8.29677 14.4829 7.99121 14.1061 7.99121C13.7297 7.99121 13.4244 8.29677 13.4244 8.67343C13.4244 9.04986 13.7297 9.35513 14.1061 9.35513ZM8.88121 9.72328C8.85042 9.80061 8.62886 10.4265 8.09301 11.0751V8.30161L6.66525 8.58379V13.6111H8.09301V12.0571C8.50653 12.6773 8.71073 13.6111 8.71073 13.6111H10.4209C10.2517 12.9078 9.51175 11.6111 9.51175 11.6111C10.1759 10.7691 10.4676 9.87192 10.514 9.72328H8.88121ZM12.6347 9.6708C11.3559 9.71185 10.7067 10.2856 10.7067 11.4261V13.6111H12.1019V11.8293C12.1019 11.1463 12.1913 10.8536 13.0017 10.8257V9.69081C12.8653 9.66186 12.6347 9.6708 12.6347 9.6708ZM4.27076 10.2769C4.09588 10.2654 3.69101 10.2392 3.69101 9.87471C3.69101 9.43487 4.27391 9.43487 4.49254 9.43487C4.87697 9.43487 5.37485 9.54848 5.7304 9.65483C5.7304 9.65483 5.92873 9.72475 6.09752 9.79635L6.11321 9.80061V8.59603L6.09166 8.58965C5.67205 8.44285 5.18414 8.30161 4.27955 8.30161C2.71987 8.30161 2.16724 9.21023 2.16724 9.9886C2.16724 10.4373 2.35956 11.4933 4.14579 11.6151C4.29722 11.6244 4.69908 11.6476 4.69908 12.0243C4.69908 12.3352 4.37007 12.5186 3.8167 12.5186C3.21027 12.5186 2.62202 12.364 2.26472 12.2173V13.4579C2.79961 13.5982 3.4026 13.6682 4.10929 13.6682C5.63431 13.6682 6.31733 12.8086 6.31733 11.9565C6.31733 10.9905 5.55303 10.3628 4.27076 10.2769ZM13.4145 13.6111H14.7983V9.72768H13.4145V13.6111ZM17.4041 8.54919V13.6111H18.7881V8.30161L17.4041 8.54919ZM15.3845 8.54919L16.7673 8.30161V13.6111H15.3845V8.54919Z" fill="#F6F6F7"/>
</g>
<defs>
<linearGradient id="paint0_linear_3160_5576" x1="5.61868" y1="1.48177e-07" x2="16.4678" y2="20.7761" gradientUnits="userSpaceOnUse">
<stop stop-color="#6B195F"/>
<stop offset="1" stop-color="#4C255B"/>
</linearGradient>
<clipPath id="clip0_3160_5576">
<rect x="0.0895996" y="0.719604" width="20.7761" height="20.7761" rx="10.3881" fill="white"/>
</clipPath>
</defs>
</svg>
