<svg width="136" height="19" viewBox="0 0 136 19" fill="none" xmlns="http://www.w3.org/2000/svg">
<rect y="0.387207" width="24" height="18" rx="2" fill="white"/>
<path d="M14.4337 4.98438H9.56641V13.7898H14.4337V4.98438Z" fill="#FF5F00"/>
<path d="M9.87555 9.38711C9.87478 8.53908 10.0657 7.70199 10.4338 6.93921C10.8018 6.17643 11.3375 5.50796 12.0001 4.98439C11.1795 4.33505 10.194 3.93123 9.15623 3.81909C8.11844 3.70696 7.07025 3.89102 6.13146 4.35026C5.19267 4.8095 4.40116 5.52539 3.84741 6.41608C3.29366 7.30677 3 8.33634 3 9.38711C3 10.4379 3.29366 11.4674 3.84741 12.3581C4.40116 13.2488 5.19267 13.9647 6.13146 14.424C7.07025 14.8832 8.11844 15.0673 9.15623 14.9551C10.194 14.843 11.1795 14.4392 12.0001 13.7898C11.3375 13.2663 10.8019 12.5978 10.4338 11.835C10.0657 11.0722 9.87479 10.2351 9.87555 9.38711Z" fill="#EB001B"/>
<path d="M20.9999 9.38711C20.9999 10.4379 20.7063 11.4674 20.1526 12.3581C19.5988 13.2488 18.8073 13.9647 17.8686 14.4239C16.9298 14.8832 15.8816 15.0673 14.8439 14.9551C13.8061 14.843 12.8206 14.4392 12 13.7898C12.6621 13.2657 13.1973 12.5971 13.5653 11.8345C13.9334 11.0718 14.1246 10.235 14.1246 9.38711C14.1246 8.53922 13.9334 7.70239 13.5653 6.93973C13.1973 6.17707 12.6621 5.50849 12 4.98439C12.8206 4.33504 13.8061 3.93123 14.8439 3.81909C15.8816 3.70696 16.9298 3.89103 17.8686 4.35028C18.8073 4.80952 19.5988 5.5254 20.1526 6.4161C20.7063 7.30679 20.9999 8.33636 20.9999 9.38711Z" fill="#F79E1B"/>
<rect x="28" y="0.387207" width="24" height="18" rx="2" fill="white"/>
<path d="M42.6781 5.9873C41.187 5.9873 39.8545 6.76016 39.8545 8.18807C39.8545 9.82561 42.2177 9.93872 42.2177 10.7614C42.2177 11.1078 41.8208 11.4178 41.1428 11.4178C40.1806 11.4178 39.4614 10.9846 39.4614 10.9846L39.1537 12.4255C39.1537 12.4255 39.9822 12.7915 41.0821 12.7915C42.7123 12.7915 43.9951 11.9807 43.9951 10.5283C43.9951 8.79797 41.622 8.68823 41.622 7.92467C41.622 7.65332 41.9479 7.35601 42.6239 7.35601C43.3867 7.35601 44.009 7.67111 44.009 7.67111L44.3102 6.27943C44.3102 6.27943 43.633 5.9873 42.6781 5.9873ZM29.0361 6.09234L29 6.3024C29 6.3024 29.6273 6.41721 30.1923 6.64622C30.9198 6.90883 30.9716 7.06171 31.0941 7.53654L32.4292 12.6831H34.2188L36.9759 6.09234H35.1904L33.4188 10.5735L32.6958 6.77505C32.6295 6.34033 32.2937 6.09234 31.8827 6.09234H29.0361ZM37.6939 6.09234L36.2932 12.6831H37.9959L39.3917 6.09234H37.6939ZM47.1904 6.09234C46.7798 6.09234 46.5623 6.31215 46.4026 6.69628L43.9081 12.6831H45.6937L46.0391 11.6853H48.2144L48.4245 12.6831H50L48.6255 6.09234H47.1904ZM47.4226 7.87297L47.9519 10.3462H46.5339L47.4226 7.87297Z" fill="#1434CB"/>
<rect x="56" y="0.387207" width="24" height="18" rx="2" fill="white"/>
<path d="M76.8288 12.8576V12.6401H76.7748L76.7118 12.7851L76.6488 12.6401H76.5948V12.8576H76.6308V12.6945L76.6938 12.8395H76.7388L76.8018 12.6945V12.8576H76.8288ZM76.4688 12.8576V12.6764H76.5408V12.6401H76.3608V12.6764H76.4328V12.8576H76.4688Z" fill="#00A2E5"/>
<path d="M70.4299 13.7909H65.561V4.98315H70.4299V13.7909Z" fill="#7375CF"/>
<path d="M65.8758 9.38711C65.8758 7.60199 66.7038 6.00717 67.9998 4.98323C67.0548 4.23112 65.8578 3.78711 64.5619 3.78711C61.4929 3.78711 59 6.29714 59 9.38711C59 12.4771 61.4929 14.9871 64.5619 14.9871C65.8578 14.9871 67.0548 14.5431 67.9998 13.791C66.7038 12.767 65.8758 11.1722 65.8758 9.38711Z" fill="#EB001B"/>
<path d="M76.9998 9.38711C76.9998 12.4771 74.5068 14.9871 71.4379 14.9871C70.1419 14.9871 68.945 14.5431 68 13.791C69.296 12.767 70.1239 11.1722 70.1239 9.38711C70.1239 7.60199 69.296 6.00717 68 4.98323C68.945 4.23112 70.1419 3.78711 71.4379 3.78711C74.5068 3.78711 76.9998 6.29714 76.9998 9.38711Z" fill="#00A2E5"/>
<rect x="84" y="0.387207" width="24" height="18" rx="2" fill="white"/>
<path d="M97.0048 15.4293C100.296 15.445 103.3 12.7451 103.3 9.46057C103.3 5.86873 100.296 3.38601 97.0048 3.38721H94.1723C90.8416 3.38601 88.1001 5.86947 88.1001 9.46057C88.1001 12.7458 90.8416 15.445 94.1723 15.4293H97.0048Z" fill="#0079BE"/>
<path d="M94.1857 3.88501C91.1422 3.88597 88.676 6.35292 88.6753 9.39763C88.676 12.4418 91.1422 14.9085 94.1857 14.9095C97.2299 14.9085 99.6967 12.4418 99.6971 9.39763C99.6967 6.35292 97.2299 3.88597 94.1857 3.88501ZM90.6928 9.39763C90.6957 7.90981 91.6249 6.64109 92.9352 6.13693V12.6576C91.6249 12.1537 90.6957 10.8857 90.6928 9.39763ZM95.4358 12.659V6.13671C96.7466 6.63966 97.6772 7.90909 97.6796 9.39763C97.6772 10.8866 96.7466 12.1551 95.4358 12.659Z" fill="white"/>
<g clip-path="url(#clip0_3160_4742)">
<rect x="112" y="0.387207" width="24" height="18" rx="2" fill="#1977C6"/>
<path d="M136 18.3872H118V0.387207H136V9.38632V18.3872Z" fill="white"/>
<path d="M127.033 6.90791H125.666L126.35 5.25997L127.033 6.90791ZM127.933 9.04527H129.48L127.257 4.00785H125.486L123.263 9.04527H124.774L125.191 8.0378H127.508L127.933 9.04527ZM134.64 9.04527H136V4.00785H133.884L132.754 7.14532L131.632 4.00785H129.48V9.04527H130.84V5.51909L132.136 9.04527H133.344L134.64 5.5118V9.04527ZM126.566 13.6479V12.8634H129.409V11.7264H126.566V10.9421H129.481V9.77627H125.192V14.8137H129.481V13.6479H126.566ZM134.617 12.2827L136 13.7543V10.8233L134.617 12.2827ZM134.194 14.8137H136L133.611 12.2806L136 9.77627H134.223L132.748 11.3883L131.287 9.77627H129.481L131.855 12.295L129.481 14.8137H131.237L132.719 13.1873L134.194 14.8137ZM136 18.3872V15.535H133.828L132.71 14.2988L131.587 15.535H124.427V9.77332H122.116L124.982 3.28644H127.747L128.734 5.50874V3.28644H132.155L132.75 4.96109L133.348 3.28644H136V0.387207H118V18.3872H136Z" fill="#1977C6"/>
</g>
<defs>
<clipPath id="clip0_3160_4742">
<rect x="112" y="0.387207" width="24" height="18" rx="2" fill="white"/>
</clipPath>
</defs>
</svg>
